# xmcd
#
# Track frame offsets:
# 150
# 19311
# 40122
# 64496
# 81491
# 104490
# 127888
# 146710
# 165199
# 191089
# 210071
#
# Disc length: 3007 seconds
#
#
# Revision: 0
# Processed by: cddbd v1.5.2PL0 Copyright (c) Steve Scherf et al.
# Submitted via: FreeRIP 2.951 
#
DISCID=950bbd0b
DTITLE=Endless Blue - Stranger
DYEAR=2005
DGENRE=General Unclassifiable
TTITLE0=Stranger
TTITLE1=Goodbye
TTITLE2=The Feeling
TTITLE3=Just Tell Me
TTITLE4=Low
TTITLE5=Undone
TTITLE6=Rainy Eyes
TTITLE7=Forever
TTITLE8=Break
TTITLE9=History
TTITLE10=Fever
EXTD=
EXTT0=
EXTT1=
EXTT2=
EXTT3=
EXTT4=
EXTT5=
EXTT6=
EXTT7=
EXTT8=
EXTT9=
EXTT10=
PLAYORDER=
